<svg width="126" height="100" viewBox="0 0 126 100" fill="none" xmlns="http://www.w3.org/2000/svg">
    <g clip-path="url(#clip0_166_927)">
        <path opacity="0.4"
            d="M38 12.5C38 5.60547 43.6055 0 50.5 0H113C119.895 0 125.5 5.60547 125.5 12.5V56.25C125.5 63.1445 119.895 68.75 113 68.75H50.5C43.6055 68.75 38 63.1445 38 56.25V12.5ZM89.5625 18.75C88 18.75 86.5352 19.5312 85.6562 20.8398L74.7188 37.2461L71.3398 33.0078C70.4414 31.8945 69.0938 31.25 67.6875 31.25C66.2812 31.25 64.9141 31.8945 64.0352 33.0078L51.5352 48.6328C50.4023 50.0391 50.1875 51.9727 50.9687 53.5938C51.75 55.2148 53.3906 56.25 55.1875 56.25H70.8125H80.1875H108.312C110.051 56.25 111.633 55.293 112.453 53.7695C113.273 52.2461 113.176 50.3906 112.219 48.9648L93.4688 20.8398C92.5898 19.5312 91.125 18.75 89.5625 18.75ZM59.875 25C61.5326 25 63.1223 24.3415 64.2944 23.1694C65.4665 21.9973 66.125 20.4076 66.125 18.75C66.125 17.0924 65.4665 15.5027 64.2944 14.3306C63.1223 13.1585 61.5326 12.5 59.875 12.5C58.2174 12.5 56.6277 13.1585 55.4556 14.3306C54.2835 15.5027 53.625 17.0924 53.625 18.75C53.625 20.4076 54.2835 21.9973 55.4556 23.1694C56.6277 24.3415 58.2174 25 59.875 25Z"
            fill="#5E88D8" />
        <path
            d="M93.4688 20.8398L112.219 48.9648C113.176 50.4102 113.273 52.2461 112.453 53.7695C111.633 55.293 110.051 56.25 108.313 56.25H80.1875H70.8125H55.1875C53.3906 56.25 51.75 55.2148 50.9688 53.5938C50.1875 51.9727 50.4023 50.0391 51.5352 48.6328L64.0352 33.0078C64.9336 31.8945 66.2617 31.25 67.6875 31.25C69.1133 31.25 70.4609 31.8945 71.3399 33.0078L74.7188 37.2266L85.6563 20.8203C86.5352 19.5312 88 18.75 89.5625 18.75C91.125 18.75 92.5899 19.5312 93.4688 20.8398ZM13 25H38V37.5C34.543 37.5 31.75 40.293 31.75 43.75V81.25C31.75 84.707 34.543 87.5 38 87.5H63C66.457 87.5 69.25 84.707 69.25 81.25V68.75H100.5V87.5C100.5 94.3945 94.8945 100 88 100H13C6.10547 100 0.5 94.3945 0.5 87.5V37.5C0.5 30.6055 6.10547 25 13 25ZM14.5625 37.5C12.8438 37.5 11.4375 38.9062 11.4375 40.625V43.75C11.4375 45.4688 12.8438 46.875 14.5625 46.875H17.6875C19.4063 46.875 20.8125 45.4688 20.8125 43.75V40.625C20.8125 38.9062 19.4063 37.5 17.6875 37.5H14.5625ZM14.5625 57.8125C12.8438 57.8125 11.4375 59.2188 11.4375 60.9375V64.0625C11.4375 65.7812 12.8438 67.1875 14.5625 67.1875H17.6875C19.4063 67.1875 20.8125 65.7812 20.8125 64.0625V60.9375C20.8125 59.2188 19.4063 57.8125 17.6875 57.8125H14.5625ZM14.5625 78.125C12.8438 78.125 11.4375 79.5312 11.4375 81.25V84.375C11.4375 86.0938 12.8438 87.5 14.5625 87.5H17.6875C19.4063 87.5 20.8125 86.0938 20.8125 84.375V81.25C20.8125 79.5312 19.4063 78.125 17.6875 78.125H14.5625ZM80.1875 81.25V84.375C80.1875 86.0938 81.5938 87.5 83.3125 87.5H86.4375C88.1563 87.5 89.5625 86.0938 89.5625 84.375V81.25C89.5625 79.5312 88.1563 78.125 86.4375 78.125H83.3125C81.5938 78.125 80.1875 79.5312 80.1875 81.25Z"
            fill="#5E88D8" />
    </g>
    <defs>
        <clipPath id="clip0_166_927">
            <rect width="125" height="100" fill="white" transform="translate(0.5)" />
        </clipPath>
    </defs>
</svg>