<svg width="13" height="17" viewBox="0 0 13 17" fill="none" xmlns="http://www.w3.org/2000/svg">
    <g clip-path="url(#clip0_73_593)">
        <path opacity="0.4"
            d="M0.700012 2.5C0.700012 1.39688 1.59689 0.5 2.70001 0.5H9.70001C10.8031 0.5 11.7 1.39688 11.7 2.5V14.5C11.7 15.6031 10.8031 16.5 9.70001 16.5H2.70001C1.59689 16.5 0.700012 15.6031 0.700012 14.5V2.5ZM7.20001 14.5C7.20001 14.2348 7.09466 13.9804 6.90712 13.7929C6.71958 13.6054 6.46523 13.5 6.20001 13.5C5.9348 13.5 5.68044 13.6054 5.49291 13.7929C5.30537 13.9804 5.20001 14.2348 5.20001 14.5C5.20001 14.7652 5.30537 15.0196 5.49291 15.2071C5.68044 15.3946 5.9348 15.5 6.20001 15.5C6.46523 15.5 6.71958 15.3946 6.90712 15.2071C7.09466 15.0196 7.20001 14.7652 7.20001 14.5ZM9.70001 2.5H2.70001V12.5H9.70001V2.5Z"
            fill="white" />
        <path d="M2.70001 2.5H9.70001V12.5H2.70001V2.5Z" fill="white" />
    </g>
    <defs>
        <clipPath id="clip0_73_593">
            <rect width="12" height="16" fill="white" transform="translate(0.200012 0.5)" />
        </clipPath>
    </defs>
</svg>