<svg width="17" height="17" viewBox="0 0 17 17" fill="none" xmlns="http://www.w3.org/2000/svg">
    <path opacity="0.4"
        d="M15.1313 4.5C15.8125 5.67812 16.2 7.04375 16.2 8.5C16.2 12.9187 12.6188 16.5 8.20001 16.5C3.78126 16.5 0.200012 12.9187 0.200012 8.5C0.200012 4.08125 3.78126 0.5 8.20001 0.5C9.72189 0.5 11.1438 0.925 12.3531 1.6625C12.4125 1.7875 12.4906 1.9 12.5813 2C12.2 2.42813 12.0906 3.04063 12.3125 3.575C12.5438 4.13438 13.0906 4.5 13.6969 4.5H15.1281H15.1313ZM8.20001 3C8.20001 3.275 8.42501 3.5 8.70001 3.5H9.49376L8.34689 4.64687C8.20314 4.79063 8.16251 5.00625 8.23751 5.19063C8.31251 5.375 8.49689 5.5 8.70001 5.5H10.7C10.975 5.5 11.2 5.275 11.2 5C11.2 4.725 10.975 4.5 10.7 4.5H9.90626L11.0531 3.35313C11.1969 3.20938 11.2375 2.99375 11.1625 2.80938C11.0875 2.625 10.9031 2.5 10.7 2.5H8.70001C8.42501 2.5 8.20001 2.725 8.20001 3ZM8.20001 13.75C8.53153 13.75 8.84947 13.6183 9.0839 13.3839C9.31832 13.1495 9.45001 12.8315 9.45001 12.5C9.45001 12.1685 9.31832 11.8505 9.0839 11.6161C8.84947 11.3817 8.53153 11.25 8.20001 11.25C7.86849 11.25 7.55055 11.3817 7.31613 11.6161C7.08171 11.8505 6.95001 12.1685 6.95001 12.5C6.95001 12.8315 7.08171 13.1495 7.31613 13.3839C7.55055 13.6183 7.86849 13.75 8.20001 13.75ZM10.1 7.95C9.93439 7.72812 9.62189 7.68437 9.40001 7.85C9.17814 8.01562 9.13439 8.32812 9.30001 8.55C10.25 9.81563 12.15 9.81563 13.1 8.55C13.2656 8.32812 13.2219 8.01562 13 7.85C12.7781 7.68437 12.4656 7.72812 12.3 7.95C11.75 8.68437 10.65 8.68437 10.1 7.95ZM6.30001 7.95C5.75001 8.68437 4.65001 8.68437 4.10001 7.95C3.93439 7.72812 3.62189 7.68437 3.40001 7.85C3.17814 8.01562 3.13439 8.32812 3.30001 8.55C4.25001 9.81563 6.15001 9.81563 7.10001 8.55C7.26564 8.32812 7.22189 8.01562 7.00001 7.85C6.77814 7.68437 6.46564 7.72812 6.30001 7.95Z"
        fill="white" />
</svg>